<svg id="Layer_3" enable-background="new 0 0 64 64" height="512" viewBox="0 0 64 64" width="512" xmlns="http://www.w3.org/2000/svg"><g><path d="m41 17.101v-12.601c0-1.93-1.57-3.5-3.5-3.5s-3.5 1.57-3.5 3.5v6.851c-.456-.218-.961-.351-1.5-.351-.98 0-1.864.407-2.5 1.058-.636-.651-1.52-1.058-2.5-1.058-.539 0-1.044.133-1.5.351v-2.851c0-1.93-1.57-3.5-3.5-3.5s-3.5 1.57-3.5 3.5v19.5c0 3.525 2.042 6.574 5 8.05v2.95h-1c-.553 0-1 .448-1 1v6c0 .552.447 1 1 1h1v16h2v-16h5v1.184c-1.161.414-2 1.514-2 2.816 0 1.654 1.346 3 3 3s3-1.346 3-3c0-1.302-.839-2.402-2-2.816v-1.184h5v16h2v-16h1c.553 0 1-.448 1-1v-6c0-.552-.447-1-1-1h-1v-2.95c2.958-1.476 5-4.526 5-8.05v-6c0-2.414-1.721-4.434-4-4.899zm-9 34.899c-.552 0-1-.449-1-1s.448-1 1-1 1 .449 1 1-.448 1-1 1zm4-47.5c0-.827.673-1.5 1.5-1.5s1.5.673 1.5 1.5v12.5h-3v-2.5zm-3.5 8.5c.827 0 1.5.673 1.5 1.5v2.851c-1.178.564-2 1.758-2 3.149 0 .937.375 1.784.976 2.413-.152.051-.31.087-.476.087-.827 0-1.5-.673-1.5-1.5v-7c0-.827.673-1.5 1.5-1.5zm-5 0c.827 0 1.5.673 1.5 1.5v7c0 .827-.673 1.5-1.5 1.5s-1.5-.673-1.5-1.5v-2.5-4.5c0-.827.673-1.5 1.5-1.5zm12.5 32h-16v-4h16zm3-17c0 3.86-3.141 7-7 7v2c.688 0 1.356-.085 2-.232v2.232h-12v-2.232c.644.147 1.312.232 2 .232v-2c-3.859 0-7-3.14-7-7v-19.5c0-.827.673-1.5 1.5-1.5s1.5.673 1.5 1.5v6 4.5 2.5c0 1.93 1.57 3.5 3.5 3.5.98 0 1.864-.407 2.5-1.058.636.651 1.52 1.058 2.5 1.058.955 0 1.843-.386 2.494-1.051.166.024.333.051.506.051h2.5v2c-2.757 0-5 2.243-5 5v2h2v-2c0-1.654 1.346-3 3-3h1c.553 0 1-.448 1-1v-4c0-.552-.447-1-1-1h-3.5c-.827 0-1.5-.673-1.5-1.5s.673-1.5 1.5-1.5h4.5c1.654 0 3 1.346 3 3z"/><path d="m62.447 31.105-5.355-2.678.898-6.286c.056-.391-.123-.777-.457-.988-.334-.209-.759-.205-1.088.014l-9 6 1.109 1.664 7.139-4.759-.684 4.786c-.061.426.158.844.543 1.036l4.212 2.106-4.211 2.105c-.431.215-.646.707-.515 1.169l1.44 5.04-8.107-3.243-.742 1.857 10 4c.12.049.246.072.371.072.243 0 .483-.089.67-.258.283-.255.396-.65.292-1.017l-1.772-6.202 5.258-2.629c.338-.169.552-.515.552-.894s-.214-.725-.553-.895z"/><path d="m16.555 27.168-9-6c-.328-.219-.754-.224-1.088-.014s-.513.597-.457.988l.898 6.286-5.355 2.678c-.339.169-.553.515-.553.894s.214.725.553.895l5.258 2.629-1.772 6.202c-.104.367.009.762.292 1.017.186.168.426.257.669.257.125 0 .251-.023.371-.071l10-4-.742-1.857-8.107 3.243 1.44-5.04c.132-.463-.084-.954-.515-1.169l-4.211-2.106 4.211-2.105c.385-.192.604-.61.543-1.036l-.684-4.786 7.139 4.759z"/></g></svg>