<svg id="_x33_0" enable-background="new 0 0 64 64" height="512" viewBox="0 0 64 64" width="512" xmlns="http://www.w3.org/2000/svg"><g><g><g><path d="m34 62h-12v-3.25l10.11 1.89c.27.79 1.01 1.36 1.89 1.36z" fill="#f0d0b4"/></g><g><path d="m43.77 4.52-.19-.13c-.38-.26-.82-.39-1.28-.39-1.27 0-2.3 1.03-2.3 2.3v11.54c0 .52-.09 1.03-.27 1.5-.24-.72-.65-1.37-1.18-1.89-.89-.9-2.13-1.45-3.49-1.45-1.11 0-2.16.37-3 1.01l-.01.01c-.83-.65-1.87-1.02-2.99-1.02-1.88 0-3.59 1.06-4.43 2.73l-.63 1.27v-13.86c0-1.34-.67-2.59-1.78-3.33l-.64-.42c-.38-.26-.82-.39-1.28-.39-1.27 0-2.3 1.03-2.3 2.3v30.31c0 1.57.41 3.11 1.19 4.47l1.62 2.84c.72 1.25 1.12 2.65 1.18 4.08.01.13.01.26.01.39v4.36l8.72 1.63h.01c.86-1.43 2.43-2.38 4.22-2.38h2.1c1.37 0 2.6.56 3.5 1.45.89.9 1.45 2.13 1.45 3.5v-9.36c0-1.04.27-2.07.79-2.97l.84-1.47c1.55-2.72 2.37-5.8 2.37-8.93v-23.54c0-1.68-.84-3.24-2.23-4.16z" fill="#f0d0b4"/></g><g><path d="m36 26.4-3.61 1.44c-.26.11-.53.16-.81.16-.94 0-1.78-.6-2.08-1.5l-.32-.97 3.37-1.35c.3-.12.61-.18.93-.18.18 0 .35.02.52.05 1.1.23 1.94 1.19 2 2.35z" fill="#ef7385"/></g><g><path d="m32 59v1c0 .22.04.44.11.64l-10.11-1.89-2.22-.42c-1.03-.19-1.78-1.09-1.78-2.14 0-.9.54-1.67 1.3-2l.01-.01c.15.07.31.12.47.15l10.4 1.95c.23.81.66 1.56 1.27 2.17z" fill="#fcd770"/></g><g><path d="m22 50.75 8.72 1.63h.01c-.47.75-.73 1.63-.73 2.57l.18 1.33-10.4-1.95c-.16-.03-.32-.08-.47-.15-.78-.33-1.31-1.11-1.31-1.99 0-.9.54-1.67 1.3-2l.01-.01c.15.07.31.12.47.15z" fill="#fcd770"/></g><g><path d="m22 46.39v4.36l-2.22-.42c-.16-.03-.32-.08-.47-.15-.78-.33-1.31-1.11-1.31-1.99 0-1.21.98-2.19 2.19-2.19h1.8c.01.13.01.26.01.39z" fill="#ffeaa7"/></g><g><path d="m42 55c-.01 1.29-.53 2.53-1.45 3.45l-.55.55v1c0 .55-.22 1.05-.59 1.41-.36.37-.86.59-1.41.59-1.1 0-2-.9-2-2 0 .55-.22 1.05-.59 1.41-.36.37-.86.59-1.41.59-.88 0-1.62-.57-1.89-1.36-.07-.2-.11-.42-.11-.64v-1l-.55-.55c-.61-.61-1.04-1.36-1.27-2.17l-.18-1.33c0-.94.26-1.82.73-2.57.86-1.43 2.43-2.38 4.22-2.38h2.1c1.37 0 2.6.56 3.5 1.45.89.9 1.45 2.13 1.45 3.5z" fill="#ccd1d9"/></g></g><g><path d="m33 54h2v2h-2z"/><path d="m37 54h2v2h-2z"/><path d="m25 45h4v2h-4z"/><path d="m44.328 3.684-.193-.129c-.544-.363-1.178-.555-1.832-.555-1.822 0-3.303 1.481-3.303 3.303v10.207c-1.051-.936-2.43-1.51-3.944-1.51-1.051 0-2.086.298-2.992.826-.884-.521-1.91-.826-3.008-.826-1.546 0-2.976.596-4.056 1.611v-10.47c0-1.676-.832-3.231-2.227-4.16l-.639-.426c-.543-.363-1.177-.555-1.831-.555-1.822 0-3.303 1.481-3.303 3.303v30.307c0 1.736.455 3.452 1.317 4.961l1.629 2.849c.457.801.756 1.677.916 2.58h-.677c-1.756 0-3.185 1.429-3.185 3.186 0 .752.266 1.451.712 2.002-.448.556-.712 1.255-.712 1.998 0 .752.266 1.451.712 2.002-.448.556-.712 1.255-.712 1.998 0 1.532 1.093 2.849 2.599 3.131l1.401.263v3.42h13c.768 0 1.469-.29 2-.766.531.476 1.232.766 2 .766 1.654 0 3-1.346 3-3v-.586l.257-.257c1.112-1.112 1.728-2.587 1.741-4.157h.002v-9.407c0-.869.228-1.727.659-2.481l.837-1.466c1.638-2.865 2.504-6.125 2.504-9.426v-23.544c0-2.01-.999-3.877-2.672-4.992zm-5.328 17.26v10.056c0 1.103-.897 2-2 2-.936 0-1.731-.659-1.942-1.536 1.218-1.122 1.942-2.709 1.942-4.406v-.542c0-1.394-.821-2.59-2-3.158v-2.413c0-1.397-.488-2.681-1.297-3.696.432-.159.89-.249 1.353-.249 2.174 0 3.944 1.77 3.944 3.944zm-5.516 4.056c.575 0 1.07.325 1.327.798l-2.791 1.116c-.618.248-1.361-.097-1.57-.728l-.026-.08 2.496-.998c.181-.071.371-.108.564-.108zm-14.484-20.697c0-.719.584-1.303 1.303-1.303.258 0 .508.076.723.219l.639.426c.836.557 1.335 1.49 1.335 2.496v17.859h2v-3.764l.528-1.057c.672-1.344 2.024-2.179 3.528-2.179 2.174 0 3.944 1.77 3.944 3.944v2.102c-.279.039-.555.099-.821.205l-3.179 1.272v-1.287c0-1.308.31-2.618.895-3.789l-1.789-.894c-.724 1.447-1.106 3.067-1.106 4.683v2.087l-5.091 2.036c-1.142.457-2.126 1.159-2.909 2.029zm10.005 50.743-9.037-1.694c-.561-.105-.968-.596-.968-1.166 0-.36.165-.692.435-.915.055.013.107.035.164.046l9.687 1.816c-.184.574-.286 1.183-.286 1.817 0 .032.004.063.005.096zm-8.819-8.046h.814v2.545l-1.032-.194c-.561-.104-.968-.595-.968-1.165 0-.654.532-1.186 1.186-1.186zm-1.186 9.186c0-.36.165-.692.435-.915.055.013.107.035.164.046l9.827 1.842c.295.739.738 1.418 1.318 1.997l.256.258v.006l-11.032-2.068c-.561-.105-.968-.596-.968-1.166zm4 3.769 5.573 1.045h-5.573zm16.843-2.212-.843.843v1.414c0 .551-.448 1-1 1s-1-.449-1-1v-1h-2v1c0 .551-.448 1-1 1s-1-.449-1-1v-1.414l-.843-.844c-.746-.745-1.157-1.737-1.157-2.792 0-2.178 1.772-3.95 3.95-3.95h2.1c2.178 0 3.95 1.772 3.95 3.95 0 1.055-.411 2.047-1.157 2.793zm5.157-25.523c0 2.954-.774 5.871-2.24 8.435l-.837 1.465c-.604 1.055-.923 2.256-.923 3.473v4.919c-1.052-.937-2.433-1.512-3.95-1.512h-2.1c-1.898 0-3.587.896-4.677 2.284l-7.273-1.364v-3.53c0-1.736-.455-3.452-1.317-4.961l-1.629-2.849c-.69-1.208-1.054-2.581-1.054-3.97 0-2.389 1.434-4.506 3.651-5.394l5.914-2.366c.445 1.287 1.65 2.15 3.013 2.15.407 0 .807-.077 1.185-.228l2.135-.854c-.244 1.105-.943 2.074-1.956 2.637l-5.053 2.807c-.4-.415-.822-.812-1.289-1.162l-1.201 1.6c2.255 1.691 3.601 4.383 3.601 7.2v2h2v-2c0-2.172-.657-4.28-1.831-6.061l4.178-2.321c.626 1.399 2.035 2.382 3.653 2.382 2.206 0 4-1.794 4-4v-10.056c0-.561-.083-1.103-.23-1.618.14-.484.23-.98.23-1.488v-11.535c0-.719.584-1.303 1.303-1.303.258 0 .508.076.723.219l.193.129c1.115.743 1.781 1.987 1.781 3.328z"/><path d="m33.706 37.292-1.412 1.416.171.17c1.635 1.636 2.535 3.81 2.535 6.122h2c0-2.846-1.108-5.522-3.122-7.537z"/></g></g></svg>